<svg xmlns="http://www.w3.org/2000/svg" width="30" height="34.117" viewBox="0 0 30 34.117">
  <g id="privada" transform="translate(-9 -5.844)">
    <path id="Caminho_87" data-name="Caminho 87" d="M24,39.961,9,31.3V14.5l.163-.094L24,5.844,39,14.5V31.3l-.163.094ZM9.652,30.924,24,39.208l14.348-8.284V14.881L24,6.6,9.652,14.881V30.924Z" fill="#f47224"/>
    <path id="Caminho_88" data-name="Caminho 88" d="M0,0H.652V6.825H0Z" transform="translate(32.599 27.982) rotate(-60)" fill="#f47224"/>
    <path id="Caminho_89" data-name="Caminho 89" d="M0,0H6.777V.652H0Z" transform="matrix(0.866, -0.5, 0.5, 0.866, 9.163, 30.832)" fill="#f47224"/>
    <path id="Caminho_90" data-name="Caminho 90" d="M31.5,22.872h.652V39.816H31.5Zm0-16.362h.652v5.857H31.5Z" transform="translate(-7.826 -0.232)" fill="#f47224"/>
    <path id="Caminho_91" data-name="Caminho 91" d="M32.307,36.157v-2.9l-2.555,1.475v2.9ZM30.4,35.1l1.25-.721v1.4L30.4,36.5Zm5.707-4.017-2.555,1.475v2.9l2.555-1.475v-2.9Zm-.652,2.528-1.25.722v-1.4l1.25-.722Zm-14.453-2.05h.014l-.01-.006Z" transform="translate(-4.176 -8.78)" fill="#f47224"/>
    <path id="Caminho_92" data-name="Caminho 92" d="M37.63,21.392,25.565,14.427,13.5,21.392l2.935,1.694v7.842l9.13,5.271,9.13-5.271V23.087Zm-7.181-2.2-4.558-2.632V15.368l8.633,4.985ZM25.565,21.86l-4.1-2.37,4.1-2.369,4.1,2.369Zm-.326-5.3-4.558,2.632-4.075,1.164,8.633-4.984Zm-4.473,3.285,4.473,2.583v4.992L14.981,21.495Zm5.125,2.583,4.473-2.583,5.785,1.653L25.891,27.417Zm-8.8,1.039,8.152,4.707v7.089l-2.518-1.454V29.013l.652.376v-.753L18.88,26.042V26.8l.652.377v4.793l-2.446-1.413Zm4.982,5.172v4.793l-1.884-1.088V27.548Zm11.975,1.916-8.152,4.707V28.17l8.152-4.707Z" transform="translate(-1.565 -2.985)" fill="#f47224"/>
  </g>
</svg>
