<svg xmlns="http://www.w3.org/2000/svg" width="30" height="22.583" viewBox="0 0 30 22.583">
  <path id="dormitorios" d="M344.853,496.206h-.927v-8.24a2.121,2.121,0,0,0-2.119-2.119h-19.67a2.121,2.121,0,0,0-2.119,2.119v8.24h-.927a2.121,2.121,0,0,0-2.119,2.119v9.446a.659.659,0,1,0,1.318,0v-1.6h27.365v1.6a.659.659,0,1,0,1.318,0v-9.446A2.121,2.121,0,0,0,344.853,496.206Zm-23.517-8.24a.8.8,0,0,1,.8-.8h19.67a.8.8,0,0,1,.8.8v8.24h-2.625v-2.24a2.121,2.121,0,0,0-2.119-2.119h-1.93a2.121,2.121,0,0,0-2.119,2.119v2.24h-3.688v-2.24a2.121,2.121,0,0,0-2.119-2.119h-1.93a2.121,2.121,0,0,0-2.119,2.119v2.24h-2.625Zm13.8,8.24v-2.24a.8.8,0,0,1,.8-.8h1.93a.8.8,0,0,1,.8.8v2.24Zm-9.856,0v-2.24a.8.8,0,0,1,.8-.8h1.93a.8.8,0,0,1,.8.8v2.24Zm-6.187,1.318h25.762a.8.8,0,0,1,.8.8v2.8H318.289v-2.8A.8.8,0,0,1,319.09,497.524Zm-.8,7.326v-2.405h27.365v2.405Z" transform="translate(-316.972 -485.848)" fill="#f47224"/>
</svg>
