<svg xmlns="http://www.w3.org/2000/svg" width="80" height="80" viewBox="0 0 80 80">
  <path id="area" d="M74.548,1h-12.9a6.452,6.452,0,0,0-6.452,6.452V55.194H7.452A6.452,6.452,0,0,0,1,61.645v12.9A6.452,6.452,0,0,0,7.452,81h67.1A6.452,6.452,0,0,0,81,74.548V7.452A6.452,6.452,0,0,0,74.548,1Zm3.871,73.548a3.871,3.871,0,0,1-3.871,3.871H7.452a3.871,3.871,0,0,1-3.871-3.871v-12.9a3.871,3.871,0,0,1,3.871-3.871h1.29v9.032a1.29,1.29,0,0,0,2.581,0V57.774h5.161v3.871a1.29,1.29,0,1,0,2.581,0V57.774h5.161v3.871a1.29,1.29,0,1,0,2.581,0V57.774h5.161v9.032a1.29,1.29,0,0,0,2.581,0V57.774H39.71v3.871a1.29,1.29,0,1,0,2.581,0V57.774h5.161v3.871a1.29,1.29,0,1,0,2.581,0V57.774h5.161v9.032a1.29,1.29,0,0,0,2.581,0V57.774h9.032a1.29,1.29,0,0,0,0-2.581H57.774V50.032h3.871a1.29,1.29,0,1,0,0-2.581H57.774V42.29h3.871a1.29,1.29,0,1,0,0-2.581H57.774V34.548h9.032a1.29,1.29,0,0,0,0-2.581H57.774V26.806h3.871a1.29,1.29,0,1,0,0-2.581H57.774V19.065h3.871a1.29,1.29,0,1,0,0-2.581H57.774V11.323h9.032a1.29,1.29,0,0,0,0-2.581H57.774V7.452a3.871,3.871,0,0,1,3.871-3.871h12.9a3.871,3.871,0,0,1,3.871,3.871Z" transform="translate(-1 -1)" fill="#f47224"/>
</svg>
